<?xml version="1.0" encoding="UTF-8" standalone="no"?>
<!DOCTYPE svg PUBLIC "-//W3C//DTD SVG 1.1//EN" "http://www.w3.org/Graphics/SVG/1.1/DTD/svg11.dtd"
[
<!ATTLIST g
  xmlns:vectornator CDATA #FIXED "http://vectornator.io"
  vectornator:layerName CDATA #IMPLIED >
<!ATTLIST g
  xmlns:vectornator CDATA #FIXED "http://vectornator.io"
  vectornator:mask CDATA #IMPLIED >
<!ATTLIST text
  xmlns:vectornator CDATA #FIXED "http://vectornator.io"
  vectornator:width CDATA #IMPLIED >

<!ATTLIST path
  xmlns:vectornator CDATA #FIXED "http://vectornator.io"
  vectornator:blendMode CDATA #IMPLIED >
<!ATTLIST path
  xmlns:vectornator CDATA #FIXED "http://vectornator.io"
  vectornator:shadowColor CDATA #IMPLIED >
<!ATTLIST path
  xmlns:vectornator CDATA #FIXED "http://vectornator.io"
  vectornator:shadowOpacity CDATA #IMPLIED >
<!ATTLIST path
  xmlns:vectornator CDATA #FIXED "http://vectornator.io"
  vectornator:shadowRadius CDATA #IMPLIED >
<!ATTLIST path
  xmlns:vectornator CDATA #FIXED "http://vectornator.io"
  vectornator:shadowOffset CDATA #IMPLIED >
<!ATTLIST path
  xmlns:vectornator CDATA #FIXED "http://vectornator.io"
  vectornator:shadowAngle CDATA #IMPLIED >

<!ATTLIST image
  xmlns:vectornator CDATA #FIXED "http://vectornator.io"
  vectornator:blendMode CDATA #IMPLIED >
<!ATTLIST image
  xmlns:vectornator CDATA #FIXED "http://vectornator.io"
  vectornator:shadowColor CDATA #IMPLIED >
<!ATTLIST image
  xmlns:vectornator CDATA #FIXED "http://vectornator.io"
  vectornator:shadowOpacity CDATA #IMPLIED >
<!ATTLIST image
  xmlns:vectornator CDATA #FIXED "http://vectornator.io"
  vectornator:shadowRadius CDATA #IMPLIED >
<!ATTLIST image
  xmlns:vectornator CDATA #FIXED "http://vectornator.io"
  vectornator:shadowOffset CDATA #IMPLIED >
<!ATTLIST image
  xmlns:vectornator CDATA #FIXED "http://vectornator.io"
  vectornator:shadowAngle CDATA #IMPLIED >

<!ATTLIST g
  xmlns:vectornator CDATA #FIXED "http://vectornator.io"
  vectornator:blendMode CDATA #IMPLIED >
<!ATTLIST g
  xmlns:vectornator CDATA #FIXED "http://vectornator.io"
  vectornator:shadowColor CDATA #IMPLIED >
<!ATTLIST g
  xmlns:vectornator CDATA #FIXED "http://vectornator.io"
  vectornator:shadowOpacity CDATA #IMPLIED >
<!ATTLIST g
  xmlns:vectornator CDATA #FIXED "http://vectornator.io"
  vectornator:shadowRadius CDATA #IMPLIED >
<!ATTLIST g
  xmlns:vectornator CDATA #FIXED "http://vectornator.io"
  vectornator:shadowOffset CDATA #IMPLIED >
<!ATTLIST g
  xmlns:vectornator CDATA #FIXED "http://vectornator.io"
  vectornator:shadowAngle CDATA #IMPLIED >

<!ENTITY % SVG.filter.extra.content  "| feDropShadow" >
<!ELEMENT feDropShadow EMPTY>
<!ATTLIST feDropShadow
  xmlns:svg CDATA #FIXED "http://www.w3.org/Graphics/SVG/1.1/DTD/svg11.dtd"
  dx CDATA #IMPLIED>
<!ATTLIST feDropShadow
  xmlns:svg CDATA #FIXED "http://www.w3.org/Graphics/SVG/1.1/DTD/svg11.dtd"
  dy CDATA #IMPLIED>
<!ATTLIST feDropShadow
  xmlns:svg CDATA #FIXED "http://www.w3.org/Graphics/SVG/1.1/DTD/svg11.dtd"
  stdDeviation CDATA #IMPLIED>
<!ATTLIST feDropShadow
  xmlns:svg CDATA #FIXED "http://www.w3.org/Graphics/SVG/1.1/DTD/svg11.dtd"
  flood-opacity CDATA #IMPLIED>
<!ATTLIST feDropShadow
  xmlns:svg CDATA #FIXED "http://www.w3.org/Graphics/SVG/1.1/DTD/svg11.dtd"
  in CDATA #IMPLIED>
<!ATTLIST feDropShadow
  xmlns:svg CDATA #FIXED "http://www.w3.org/Graphics/SVG/1.1/DTD/svg11.dtd"
  result CDATA #IMPLIED>
<!ATTLIST feDropShadow
  xmlns:svg CDATA #FIXED "http://www.w3.org/Graphics/SVG/1.1/DTD/svg11.dtd"
  flood-color CDATA #IMPLIED>
]
>
<!-- Created with Vectornator (http://vectornator.io/) -->
<svg height="100%" stroke-miterlimit="10" style="fill-rule:nonzero;clip-rule:evenodd;stroke-linecap:round;stroke-linejoin:round;" version="1.1" viewBox="0 0 663 664" width="100%" xml:space="preserve" xmlns="http://www.w3.org/2000/svg" xmlns:vectornator="http://vectornator.io" xmlns:xlink="http://www.w3.org/1999/xlink">
<defs/>
<g id="Layer-1" vectornator:layerName="Layer 1">
<g opacity="1">
<path d="M300.5 84.5C282.167 86.8333 265 90.8333 249 96.5C233 102.167 221 107.167 213 111.5C205 115.833 197.167 120.667 189.5 126C181.833 131.333 172 139.667 160 151C148 162.333 137.5 174.333 128.5 187C119.5 199.667 111.833 212.667 105.5 226C99.1667 239.333 93.8333 254.667 89.5 272C85.1667 289.333 82.6667 306.167 82 322.5C81.3333 338.833 82.1667 354.833 84.5 370.5C86.8333 386.167 90.5 401.167 95.5 415.5C100.5 429.833 107.5 444.667 116.5 460C125.5 475.333 136.167 489.667 148.5 503C160.833 516.333 173.5 527.667 186.5 537C199.5 546.333 212.333 554 225 560C237.667 566 250.333 570.833 263 574.5C275.667 578.167 291.167 580.833 309.5 582.5C327.833 584.167 345.5 584 362.5 582C379.5 580 396 576.333 412 571C428 565.667 443 559 457 551C471 543 484.5 533.333 497.5 522C510.5 510.667 522.167 498.167 532.5 484.5C542.833 470.833 551.667 456.333 559 441C566.333 425.667 572 410 576 394C580 378 582.333 360.667 583 342C583.667 323.333 582.667 306.167 580 290.5C577.333 274.833 573.333 259.833 568 245.5C562.667 231.167 556 217.333 548 204C540 190.667 530.667 178 520 166C509.333 154 497.667 143.167 485 133.5C472.333 123.833 459 115.5 445 108.5C431 101.5 416.333 95.8333 401 91.5C385.667 87.1667 369.667 84.3333 353 83C336.333 81.6667 318.833 82.1667 300.5 84.5Z" fill="#000000" fill-rule="evenodd" opacity="1" stroke="#000000" stroke-linecap="butt" stroke-linejoin="miter" stroke-width="1" vectornator:blendMode="luminosity"/>
<path d="M301 106C286.333 108 272.167 111.333 258.5 116C244.833 120.667 231.167 127 217.5 135C203.833 143 190.5 153 177.5 165C164.5 177 153.667 189.167 145 201.5C136.333 213.833 130.167 223.667 126.5 231C122.833 238.333 119.5 246.167 116.5 254.5C113.5 262.833 110.667 273.5 108 286.5C105.333 299.5 103.833 313.167 103.5 327.5C103.167 341.833 104.5 357.333 107.5 374C110.5 390.667 113.5 403.167 116.5 411.5C119.5 419.833 122.833 427.667 126.5 435C130.167 442.333 135.5 451.167 142.5 461.5C149.5 471.833 158 482.167 168 492.5C178 502.833 188.333 511.833 199 519.5C209.667 527.167 220.833 533.833 232.5 539.5C244.167 545.167 257.333 550 272 554C286.667 558 302.167 560.5 318.5 561.5C334.833 562.5 350.167 562 364.5 560C378.833 558 392.5 554.833 405.5 550.5C418.5 546.167 432 540 446 532C460 524 472.833 514.833 484.5 504.5C496.167 494.167 506.333 483.333 515 472C523.667 460.667 531.5 447.833 538.5 433.5C545.5 419.167 551 403.667 555 387C559 370.333 561.167 353.833 561.5 337.5C561.833 321.167 560.833 306.333 558.5 293C556.167 279.667 553 267.333 549 256C545 244.667 539.167 232.333 531.5 219C523.833 205.667 514.667 193 504 181C493.333 169 482 158.5 470 149.5C458 140.5 445 132.667 431 126C417 119.333 402.5 114.167 387.5 110.5C372.5 106.833 358 104.667 344 104C330 103.333 315.667 104 301 106Z" fill="#ffffff" fill-rule="evenodd" opacity="1" stroke="#000000" stroke-linecap="butt" stroke-linejoin="miter" stroke-width="1" vectornator:blendMode="luminosity"/>
<path d="M310.5 132C298.167 133.333 285.167 136.167 271.5 140.5C257.833 144.833 245.333 150.167 234 156.5C222.667 162.833 210.833 171.5 198.5 182.5C186.167 193.5 176.167 204.333 168.5 215C160.833 225.667 154.5 236.333 149.5 247C144.5 257.667 140.333 269.5 137 282.5C133.667 295.5 131.667 309.167 131 323.5C130.333 337.833 130.667 350 132 360C133.333 370 136 381.333 140 394C144 406.667 147.833 416.667 151.5 424C155.167 431.333 159.333 438.5 164 445.5C168.667 452.5 175.5 460.833 184.5 470.5C193.5 480.167 203 488.667 213 496C223 503.333 233.5 509.667 244.5 515C255.5 520.333 266.167 524.5 276.5 527.5C286.833 530.5 299.333 532.667 314 534C328.667 535.333 343 535.167 357 533.5C371 531.833 383.667 529.167 395 525.5C406.333 521.833 418.5 516.333 431.5 509C444.5 501.667 457 492.5 469 481.5C481 470.5 490.833 459.5 498.5 448.5C506.167 437.5 512.833 425.333 518.5 412C524.167 398.667 528.333 385 531 371C533.667 357 535 344.333 535 333C535 321.667 533.667 309 531 295C528.333 281 524.167 267.333 518.5 254C512.833 240.667 507 229.5 501 220.5C495 211.5 487.5 202.333 478.5 193C469.5 183.667 459.833 175.333 449.5 168C439.167 160.667 428.167 154.333 416.5 149C404.833 143.667 393.833 139.667 383.5 137C373.167 134.333 361.5 132.5 348.5 131.5C335.5 130.5 322.833 130.667 310.5 132Z" fill="#000000" fill-rule="evenodd" opacity="1" stroke="#000000" stroke-linecap="butt" stroke-linejoin="miter" stroke-width="1" vectornator:blendMode="luminosity"/>
<path d="M309 154C299 155.333 288.667 157.667 278 161C267.333 164.333 256.333 169.167 245 175.5C233.667 181.833 222.667 189.833 212 199.5C201.333 209.167 192.167 219.5 184.5 230.5C176.833 241.5 170.667 252.667 166 264C161.333 275.333 158 285.667 156 295C154 304.333 152.833 315.333 152.5 328C152.167 340.667 153.167 353.333 155.5 366C157.833 378.667 161.333 390.667 166 402C170.667 413.333 176 423.5 182 432.5C188 441.5 194.833 450 202.5 458C210.167 466 217.833 472.833 225.5 478.5C233.167 484.167 242 489.5 252 494.5C262 499.5 273.167 503.667 285.5 507C297.833 510.333 310.167 512.333 322.5 513C334.833 513.667 346.167 513.333 356.5 512C366.833 510.667 378 508 390 504C402 500 414 494.333 426 487C438 479.667 448.667 471.5 458 462.5C467.333 453.5 475 444.667 481 436C487 427.333 492.667 416.833 498 404.5C503.333 392.167 507.167 380.167 509.5 368.5C511.833 356.833 513 345 513 333C513 321 511.833 309.167 509.5 297.5C507.167 285.833 503.333 273.833 498 261.5C492.667 249.167 487 238.667 481 230C475 221.333 468.167 213.167 460.5 205.5C452.833 197.833 445 191.167 437 185.5C429 179.833 419.667 174.5 409 169.5C398.333 164.5 387.667 160.667 377 158C366.333 155.333 354.833 153.667 342.5 153C330.167 152.333 319 152.667 309 154Z" fill="#ffffff" fill-rule="evenodd" opacity="1" stroke="#000000" stroke-linecap="butt" stroke-linejoin="miter" stroke-width="1" vectornator:blendMode="luminosity"/>
<path d="M230 241.5C228 243.167 227 245.667 227 249C227 252.333 230.667 258 238 266C245.333 274 245.5 281.333 238.5 288C231.5 294.667 227.833 300 227.5 304C227.167 308 227.833 310.833 229.5 312.5C231.167 314.167 233.667 315 237 315C240.333 315 246 311.333 254 304C262 296.667 269.333 296.5 276 303.5C282.667 310.5 286.833 314.333 288.5 315C290.167 315.667 292.167 315.833 294.5 315.5C296.833 315.167 298.833 314.167 300.5 312.5C302.167 310.833 303 308.333 303 305C303 301.667 299.333 296 292 288C284.667 280 284.5 272.667 291.5 266C298.5 259.333 302 253.833 302 249.5C302 245.167 301.167 242.333 299.5 241C297.833 239.667 295.5 239 292.5 239C289.5 239 284 242.667 276 250C268 257.333 260.667 257.5 254 250.5C247.333 243.5 242.167 239.833 238.5 239.5C234.833 239.167 232 239.833 230 241.5Z" fill="#000000" fill-rule="evenodd" opacity="1" stroke="#000000" stroke-linecap="butt" stroke-linejoin="miter" stroke-width="1" vectornator:blendMode="luminosity"/>
<path d="M365 242C363 244 362 246.5 362 249.5C362 252.5 365.667 258 373 266C380.333 274 380.667 281.167 374 287.5C367.333 293.833 363.667 297.667 363 299C362.333 300.333 362.167 302.667 362.5 306C362.833 309.333 364.333 311.833 367 313.5C369.667 315.167 372.167 315.833 374.5 315.5C376.833 315.167 381.833 311.333 389.5 304C393.333 300.333 397.167 296.667 401 293C404.333 296.5 407.667 300 411 303.5C417.667 310.5 421.833 314.333 423.5 315C425.167 315.667 427.5 315.667 430.5 315C433.5 314.333 435.667 313 437 311C438.333 309 439 306.833 439 304.5C439 302.167 435.333 296.833 428 288.5C420.667 280.167 420.333 272.833 427 266.5C433.667 260.167 437.333 256.333 438 255C438.667 253.667 438.667 251.167 438 247.5C437.333 243.833 436.333 241.5 435 240.5C433.667 239.5 431 239.167 427 239.5C423 239.833 417.5 243.5 410.5 250.5C407 254 403.5 257.5 400 261C396.833 257.667 393.667 254.333 390.5 251C384.167 244.333 380.5 240.667 379.5 240C378.5 239.333 376.333 239 373 239C369.667 239 367 240 365 242Z" fill="#000000" fill-rule="evenodd" opacity="1" stroke="#000000" stroke-linecap="butt" stroke-linejoin="miter" stroke-width="1" vectornator:blendMode="luminosity"/>
<path d="M244.5 406.5C242.167 408.833 241 411.333 241 414C241 416.667 243.5 420.5 248.5 425.5C253.5 430.5 261 435.833 271 441.5C281 447.167 291.5 451.333 302.5 454C313.5 456.667 323.5 458 332.5 458C341.5 458 350.667 457 360 455C369.333 453 379.667 449 391 443C402.333 437 410.667 431.333 416 426C421.333 420.667 423.833 416.167 423.5 412.5C423.167 408.833 422.167 406.333 420.5 405C418.833 403.667 416.5 403 413.5 403C410.5 403 406.667 405.167 402 409.5C397.333 413.833 391.167 418.167 383.5 422.5C375.833 426.833 367.5 430.167 358.5 432.5C349.5 434.833 341 436 333 436C325 436 316 434.667 306 432C296 429.333 287.333 425.833 280 421.5C272.667 417.167 267.167 413.167 263.5 409.5C259.833 405.833 256.333 403.833 253 403.5C249.667 403.167 246.833 404.167 244.5 406.5Z" fill="#000000" fill-rule="evenodd" opacity="1" stroke="#000000" stroke-linecap="butt" stroke-linejoin="miter" stroke-width="1" vectornator:blendMode="luminosity"/>
</g>
</g>
</svg>
